<?xml version="1.0" encoding="iso-8859-1"?>
<svg height="800px" width="800px" version="1.1" id="Capa_1" xmlns="http://www.w3.org/2000/svg" xmlns:xlink="http://www.w3.org/1999/xlink" viewBox="0 0 452.986 452.986" xml:space="preserve">
    <style>
        path {
            fill: black;
        }

        @media (prefers-color-scheme: dark) {
            path {
                fill: white;
            }
        }
    </style>
    <g>
        <path 
            d="M0,0v452.986h452.986V0H0z M403.223,24.655c8.132,0,14.668,6.558,14.668,14.625
            c0,8.111-6.536,14.711-14.668,14.711c-8.089,0-14.668-6.601-14.668-14.711C388.576,31.234,395.134,24.655,403.223,24.655z
            M352.035,24.655c8.046,0,14.647,6.558,14.647,14.625c0,8.111-6.601,14.711-14.647,14.711c-8.132,0-14.668-6.601-14.668-14.711
            C337.389,31.234,343.903,24.655,352.035,24.655z M417.955,418.624H35.053V85.701h382.903V418.624z"
        />
        <path 
            d="M226.493,398.952c80.394,0,145.495-65.101,145.495-145.43s-65.101-145.495-145.495-145.495
            c-80.373,0-145.516,65.165-145.516,145.495C80.977,333.873,146.12,398.952,226.493,398.952z M142.044,198.516l29.444-29.444
            l55.005,55.027l54.984-55.027l29.379,29.444L255.894,253.5l54.984,54.941l-29.423,29.444l-54.962-54.962l-55.005,54.984
            l-29.444-29.444l54.984-54.941L142.044,198.516z"
        />
    </g>
</svg>